<svg width="22" height="22" viewBox="0 0 16 16" fill="none" xmlns="http://www.w3.org/2000/svg">
<path d="M11.534 7.00002H15.466C15.5135 7.00004 15.56 7.01359 15.6001 7.03909C15.6402 7.06459 15.6722 7.10098 15.6923 7.144C15.7125 7.18702 15.7199 7.23489 15.7139 7.282C15.7078 7.32912 15.6884 7.37352 15.658 7.41002L13.692 9.77002C13.6685 9.79816 13.6392 9.82079 13.606 9.83633C13.5728 9.85186 13.5366 9.85991 13.5 9.85991C13.4634 9.85991 13.4272 9.85186 13.394 9.83633C13.3608 9.82079 13.3315 9.79816 13.308 9.77002L11.342 7.41002C11.3116 7.37352 11.2922 7.32912 11.2861 7.282C11.2801 7.23489 11.2875 7.18702 11.3077 7.144C11.3278 7.10098 11.3598 7.06459 11.3999 7.03909C11.44 7.01359 11.4865 7.00004 11.534 7.00002ZM0.534 9.00002H4.466C4.5135 9.00001 4.56002 8.98645 4.6001 8.96096C4.64018 8.93546 4.67217 8.89907 4.69231 8.85605C4.71246 8.81303 4.71993 8.76516 4.71385 8.71804C4.70778 8.67093 4.6884 8.62652 4.658 8.59002L2.692 6.23002C2.66854 6.20189 2.63918 6.17925 2.606 6.16372C2.57282 6.14819 2.53663 6.14014 2.5 6.14014C2.46337 6.14014 2.42718 6.14819 2.394 6.16372C2.36082 6.17925 2.33146 6.20189 2.308 6.23002L0.342 8.59002C0.311598 8.62652 0.292224 8.67093 0.286148 8.71804C0.280071 8.76516 0.287543 8.81303 0.307689 8.85605C0.327835 8.89907 0.359821 8.93546 0.399901 8.96096C0.439981 8.98645 0.486497 9.00001 0.534 9.00002Z" fill="white"/>
<path fill-rule="evenodd" clip-rule="evenodd" d="M8 2.99999C6.448 2.99999 5.06 3.70699 4.143 4.81799C4.10205 4.87106 4.05085 4.91536 3.99244 4.94825C3.93403 4.98114 3.8696 5.00194 3.80299 5.00943C3.73638 5.01692 3.66894 5.01094 3.60468 4.99184C3.54043 4.97275 3.48067 4.94092 3.42896 4.89827C3.37725 4.85561 3.33464 4.803 3.30368 4.74354C3.27271 4.68409 3.25401 4.61902 3.2487 4.5522C3.24339 4.48538 3.25156 4.41817 3.27275 4.35457C3.29393 4.29097 3.32768 4.23228 3.372 4.18199C4.10419 3.29552 5.07559 2.638 6.17066 2.28764C7.26574 1.93729 8.4384 1.90884 9.54918 2.20568C10.66 2.50252 11.6621 3.11215 12.4364 3.96208C13.2107 4.812 13.7246 5.86644 13.917 6.99999H12.9C12.6695 5.87062 12.0558 4.85559 11.1629 4.12668C10.27 3.39777 9.15265 2.99975 8 2.99999ZM3.1 8.99999C3.28931 9.92461 3.73635 10.7768 4.38948 11.4581C5.0426 12.1394 5.87516 12.6221 6.79096 12.8503C7.70677 13.0785 8.66844 13.0429 9.56489 12.7477C10.4613 12.4525 11.256 11.9097 11.857 11.182C11.8979 11.1289 11.9491 11.0846 12.0076 11.0517C12.066 11.0188 12.1304 10.998 12.197 10.9905C12.2636 10.9831 12.3311 10.989 12.3953 11.0081C12.4596 11.0272 12.5193 11.0591 12.571 11.1017C12.6228 11.1444 12.6654 11.197 12.6963 11.2564C12.7273 11.3159 12.746 11.381 12.7513 11.4478C12.7566 11.5146 12.7484 11.5818 12.7273 11.6454C12.7061 11.709 12.6723 11.7677 12.628 11.818C11.8958 12.7045 10.9244 13.362 9.82934 13.7123C8.73426 14.0627 7.5616 14.0911 6.45082 13.7943C5.34005 13.4975 4.33791 12.8878 3.56359 12.0379C2.78927 11.188 2.27537 10.1335 2.083 8.99999H3.1Z" fill="white"/>
</svg>
